# xmcd CD database file
#
# Track frame offsets:
#	150
#	12933
#	30074
#	42099
#	56073
#	69574
#	80737
#	92699
#	107691
#	120036
#	133604
#	149899
#	160071
#	178812
#	200900
#	213169
#	226831
#	237221
#
# Disc length: 3320 seconds
#
# Revision: 0
# Processed by: cddbd v1.5.2PL0 Copyright (c) Steve Scherf et al.
# Submitted via: CDex 1.51
#
DISCID=f00cf612
DTITLE=Various Artist - Country Hits - The Album
DYEAR=2015
DGENRE=Country
TTITLE0=Ring Of Fire - Johnny Cash
TTITLE1=Blue Bayou - Lynn Anderson
TTITLE2=Ruben James - Kenny Rogers
TTITLE3=Coal Miner's Daughter - Loretta Lynn
TTITLE4=Rose Garden - Lynn Anderson
TTITLE5=Big Mamou -Waylon Jennings
TTITLE6=Sweet Dreams - Wanda Jackson
TTITLE7=Sixteen Tons - Frankie Lane
TTITLE8=Folsom Prison Blues - Johnny Cash
TTITLE9=Fever - Billie Jo Spears
TTITLE10=Green Green Grass Of Home - Don Gibson
TTITLE11=I'm Sorry - Brenda Lee
TTITLE12=If I Said You Had A Beautiful Body - Bellamy Brothers
TTITLE13=City Of New Orleans - Willie Nelson
TTITLE14=Letter To Heaven - Dolly Parton
TTITLE15=Ruby Don't Take Your Love To Town - Kenny Rogers
TTITLE16=If I Were A Carpenter - Lynn Anderson
TTITLE17=Me And Bobby McGee - Kenny Rogers
EXTD=
EXTT0=
EXTT1=
EXTT2=
EXTT3=
EXTT4=
EXTT5=
EXTT6=
EXTT7=
EXTT8=
EXTT9=
EXTT10=
EXTT11=
EXTT12=
EXTT13=
EXTT14=
EXTT15=
EXTT16=
EXTT17=
PLAYORDER=
